# xmcd
#
# Track frame offsets:
#	150
#	17867
#	33000
#	44800
#	55177
#	63940
#	74372
#	86900
#	103095
#	116230
#	135152
#	148597
#	168055
#	181967
#	197842
#	217052
#	227967
#	240445
#	250115
#	256720
#	265167
#
# Disc length: 3855 seconds
#
# Revision: 1
# Processed by: cddbd v1.5PL3 Copyright (c) Steve Scherf et al.
# Submitted via: CDex 1.50Beta5
#
DISCID=2d0f0d15
DTITLE=Various Artist - ウルトラマン・シリーズ主題歌全曲集’99
DYEAR=1998
DGENRE=Anime
TTITLE0=田中昌之/ウルトラマンガイア!
TTITLE1=田中昌之/ガイア ノ チカラ
TTITLE2=武村太郎/ウルトラマンタロウ
TTITLE3=武村太郎/ウルトラ六兄弟
TTITLE4=みすず児童合唱団/ウルトラマンのうた
TTITLE5=みすず児童合唱団/特捜隊のうた
TTITLE6=ハニー・ナイツ/ウルトラマンA
TTITLE7=ハニー・ナイツ/TACの歌
TTITLE8=みすず児童合唱団/大怪獣の歌
TTITLE9=前田達也/ウルトラマンダイナ
TTITLE10=ナイトスキャッツ/Take off!スーパーGUTS
TTITLE11=前田達也/いまこそフラッシュ
TTITLE12=若子内悦郎/帰ってきたウルトラマン
TTITLE13=若子内悦郎/MATチームの歌
TTITLE14=ハニー・ナイツ/怪獣音頭
TTITLE15=ヒデタ樹/戦え!ウルトラマンレオ
TTITLE16=真夏竜/ウルトラマンレオ
TTITLE17=みすず児童合唱団/ウルトラセブンのうた
TTITLE18=東京マイスタージンガー/ウルトラ警備隊のうた
TTITLE19=エコーズ/ULTRA SEVEN
TTITLE20=TREE BOYS/TAKE ME HIGHER
EXTD=
EXTT0=
EXTT1=
EXTT2=
EXTT3=
EXTT4=
EXTT5=
EXTT6=
EXTT7=
EXTT8=
EXTT9=
EXTT10=
EXTT11=
EXTT12=
EXTT13=
EXTT14=
EXTT15=
EXTT16=
EXTT17=
EXTT18=
EXTT19=
EXTT20=
PLAYORDER=
